:SAMPLES-PER-SECOND 30
:FRAME-RANGE 1-663
:FULLY-SPECIFIED
:DEGREES
83
root  42.6556 39.0025 89.0443 -3.41327 -48.3218 0.775079
RightUpLeg  -14.5359 -21.8256 -3.89188
RightLeg  41.1806 -12.9275 -12.1016
RightFoot  -4.13609 -0.930904 14.267
RightToes  2.91037e-010 0 -3.6325e-017
Spine  7.52077 -0.779279 -7.52708
Spine1  0.234793 -0.992757 -2.28959
HEad  26.5425 -5.56817 -0.16656
LeftShoulder1  1.41664 -0.330486 -30.8914
LeftArm  9.29626 1.84248 -27.4816
LeftForeArm  3.79915 -8.39361 -15.7406
LeftHand  0.359451 -1.01349 -6.4471
RightShoulder  6.78642 8.27049 50.4924
RightArm  26.7198 -5.40039 18.4139
RightForeArm  13.9873 6.03091 16.5934
RightHand  0.316965 3.88899 3.69785
LeftUpLeg  -5.20529 15.2165 3.17745
LeftLeg  14.6322 5.24378 -3.29897
LeftFoot  -4.18096 0.161106 -2.17333
LeftToes  -4.9116e-011 5.71383e-011 -3.31847e-011
84
root  42.1376 39.134 89.6319 -2.98002 -48.8012 0.504998
RightUpLeg  -15.1227 -22.0387 -2.79328
RightLeg  30.4917 -13.114 -8.43228
RightFoot  -1.80028 -1.17333 13.8491
RightToes  2.91037e-010 0 -3.6325e-017
Spine  7.27786 -1.06397 -7.81137
Spine1  0.162863 -1.27789 -1.85799
HEad  26.844 -4.9869 -0.106062
LeftShoulder1  1.41526 -0.332196 -30.8384
LeftArm  10.9796 0.437467 -27.9175
LeftForeArm  2.08559 -10.6751 -14.6101
LeftHand  0.361969 -1.25769 -6.22797
RightShoulder  6.49806 7.81028 50.318
RightArm  23.9765 -5.72727 17.8738
RightForeArm  16.6703 4.14099 17.0222
RightHand  0.32359 3.92404 3.7639
LeftUpLeg  -3.16968 12.8749 3.46658
LeftLeg  12.6703 7.90599 -3.28411
LeftFoot  -4.415 0.162167 -2.24128
LeftToes  -4.9116e-011 5.71383e-011 -3.31847e-011
85
root  41.5623 39.1371 90.1887 -2.91383 -49.131 0.528636
RightUpLeg  -14.5162 -20.6647 -2.29776
RightLeg  18.845 -9.0872 -3.63847
RightFoot  0.944876 -1.6991 15.7552
RightToes  2.91037e-010 0 -3.6325e-017
Spine  6.98854 -1.30656 -8.2234
Spine1  0.209734 -1.5095 -1.62461
HEad  26.9564 -4.50654 -0.135905
LeftShoulder1  1.43497 -0.380184 -30.8913
LeftArm  14.4006 -0.789711 -28.2568
LeftForeArm  -0.804257 -13.5289 -12.9484
LeftHand  0.360555 -1.50019 -5.95988
RightShoulder  6.26719 7.46357 50.0688
RightArm  21.9808 -5.99738 17.4239
RightForeArm  18.0453 2.62069 17.3097
RightHand  0.316549 3.91244 3.68169
LeftUpLeg  -1.65493 11.7579 3.38317
LeftLeg  12.0783 9.37104 -2.85693
LeftFoot  -5.43017 0.158207 -2.43243
LeftToes  -4.9116e-011 5.71383e-011 -3.31847e-011
86
root  40.9257 39.0782 90.7227 -3.46057 -49.2073 0.867371
RightUpLeg  -12.0987 -13.3117 -4.03574
RightLeg  8.35188 -9.47758 0.343405
RightFoot  2.75418 -2.27279 18.3918
RightToes  2.91037e-010 0 -3.6325e-017
Spine  7.00818 -1.56793 -9.02586
Spine1  0.178596 -1.8632 -1.21426
HEad  27.0536 -3.98886 -0.290255
LeftShoulder1  1.43985 -0.39144 -30.9099
LeftArm  17.8413 -1.55535 -28.5105
LeftForeArm  -3.74256 -16.3099 -10.9025
LeftHand  0.361028 -1.79156 -5.69719
RightShoulder  6.22783 7.41364 49.9829
RightArm  20.5165 -6.16707 16.9115
RightForeArm  18.5667 1.31188 17.5486
RightHand  0.338829 3.92134 3.95483
LeftUpLeg  0.023951 11.3398 3.23186
LeftLeg  12.1511 9.75999 -2.3723
LeftFoot  -6.7682 0.154303 -2.84675
LeftToes  -4.9116e-011 5.71383e-011 -3.31847e-011
87
root  40.2206 38.9605 91.2432 -4.63361 -49.2591 1.62976
RightUpLeg  -9.92085 -7.11929 -5.36054
RightLeg  1.5193 -10.7157 2.38475
RightFoot  2.99983 -2.64389 20.9634
RightToes  2.91037e-010 0 -3.6325e-017
Spine  6.52178 -1.6717 -9.28878
Spine1  0.962315 -1.86148 -1.67906
HEad  27.2718 -3.80765 -0.492659
LeftShoulder1  1.48288 -0.530273 -30.7047
LeftArm  19.9158 -2.82926 -28.9154
LeftForeArm  -5.44926 -17.8853 -9.57675
LeftHand  0.359804 -1.94765 -5.47164
RightShoulder  6.19624 7.32619 50.13
RightArm  17.7961 -6.21567 16.5895
RightForeArm  19.7686 -0.140807 17.5905
RightHand  0.351531 3.88504 4.13158
LeftUpLeg  2.01766 11.5108 3.25314
LeftLeg  12.6351 9.32129 -2.30538
LeftFoot  -8.4318 0.138877 -3.47662
LeftToes  -4.9116e-011 5.71383e-011 -3.31847e-011
88
root  39.4586 38.7837 91.7803 -6.00158 -49.5166 2.56877
RightUpLeg  -8.35395 -6.28857 -5.37983
RightLeg  -1.02281 -9.97739 3.28093
RightFoot  5.39231 -3.62543 24.5552
RightToes  2.91037e-010 0 -3.6325e-017
Spine  6.20862 -1.65558 -9.23204
Spine1  1.21888 -1.74145 -2.34793
HEad  28.0251 -3.61382 -0.880065
LeftShoulder1  1.46286 -0.473841 -30.7223
LeftArm  21.4552 -3.54672 -29.2192
LeftForeArm  -7.06711 -19.0252 -8.59278
LeftHand  0.354343 -2.17458 -5.06197
RightShoulder  6.32711 7.61648 49.8534
RightArm  15.4819 -6.68613 16.6981
RightForeArm  21.2444 -1.46035 17.5312
RightHand  0.350815 3.94657 4.09111
LeftUpLeg  4.05805 11.7884 3.26868
LeftLeg  13.4522 8.95128 -2.17646
LeftFoot  -10.4249 0.0981478 -4.45962
LeftToes  -4.9116e-011 5.71383e-011 -3.31847e-011
89
root  38.7625 38.8367 92.3069 -6.05284 -50.1355 2.12349
RightUpLeg  -8.37591 -6.34366 -3.6831
RightLeg  1.18581 -6.47207 3.2614
RightFoot  6.9452 -1.63462 10.4274
RightToes  2.91037e-010 0 -3.6325e-017
Spine  5.94892 -1.51332 -7.27519
Spine1  1.45516 -1.50359 -2.47091
HEad  28.6583 -3.30856 -1.70991
LeftShoulder1  1.44076 -0.378696 -31.0557
LeftArm  22.1535 -3.66627 -29.3568
LeftForeArm  -7.87303 -19.7954 -7.8971
LeftHand  0.354845 -2.31885 -5.07841
RightShoulder  6.09702 7.2223 49.8084
RightArm  16.7557 -6.15428 16.3702
RightForeArm  20.2497 -1.62618 17.7456
RightHand  0.362821 3.8774 4.27668
LeftUpLeg  6.90877 11.8894 4.02908
LeftLeg  11.6999 9.10757 -2.24156
LeftFoot  -10.9855 0.0820943 -5.24323
LeftToes  -4.9116e-011 5.71383e-011 -3.31847e-011
90
root  38.0586 38.8755 92.8105 -5.76031 -50.5835 1.29086
RightUpLeg  -8.15833 -5.3335 -2.08308
RightLeg  3.10704 -7.65985 2.54847
RightFoot  8.70071 -0.0629639 0.694921
RightToes  2.91037e-010 0 -3.6325e-017
Spine  6.08121 -1.52472 -4.99721
Spine1  1.17567 -1.40399 -2.45683
HEad  29.0562 -2.81583 -2.46639
LeftShoulder1  1.38469 -0.212667 -31.2035
LeftArm  22.529 -2.96999 -29.4671
LeftForeArm  -8.06067 -20.3151 -7.41487
LeftHand  0.354113 -2.39435 -5.09907
RightShoulder  6.13855 7.33912 49.6079
RightArm  16.734 -6.25452 16.3019
RightForeArm  20.3744 -1.57141 17.7272
RightHand  0.375383 3.91848 4.41121
LeftUpLeg  9.46529 12.2725 4.99286
LeftLeg  10.345 8.79396 -2.04642
LeftFoot  -11.4992 0.0609574 -5.73359
LeftToes  -4.9116e-011 5.71383e-011 -3.31847e-011
91
root  37.3555 38.8064 93.303 -5.39331 -50.856 0.267281
RightUpLeg  -8.16012 -5.24273 -0.903001
RightLeg  6.7171 -7.59231 1.27073
RightFoot  6.10334 0.00996506 0.20781
RightToes  2.91037e-010 0 -3.6325e-017
Spine  6.19437 -1.60954 -2.5928
Spine1  1.29095 -1.30861 -2.73187
HEad  29.0566 -2.59316 -3.0611
LeftShoulder1  1.36218 -0.108148 -31.6592
LeftArm  23.1515 -2.1576 -29.5008
LeftForeArm  -8.43771 -20.7619 -7.04223
LeftHand  0.350673 -2.2765 -5.13589
RightShoulder  6.32918 7.66598 49.6498
RightArm  17.0715 -5.6093 16.0613
RightForeArm  19.8889 -1.39802 17.7881
RightHand  0.364419 3.94139 4.26265
LeftUpLeg  10.9344 13.8101 6.29056
LeftLeg  11.4315 7.1253 -1.18208
LeftFoot  -12.6951 -0.00478247 -6.83045
LeftToes  -4.9116e-011 5.71383e-011 -3.31847e-011
92
root  36.698 38.7757 93.7467 -4.50886 -51.1669 -1.10887
RightUpLeg  -7.58898 -5.8098 0.0860759
RightLeg  8.61311 -6.86682 1.10103
RightFoot  4.16499 -0.0092516 0.277192
RightToes  2.91037e-010 0 -3.6325e-017
Spine  5.88961 -1.62489 -0.198741
Spine1  1.87137 -1.09953 -3.04712
HEad  28.932 -2.61246 -3.44623
LeftShoulder1  1.3839 -0.171727 -31.5982
LeftArm  20.3377 -1.61619 -30.3639
LeftForeArm  -5.67405 -18.975 -8.51361
LeftHand  0.338577 -2.18661 -5.01946
RightShoulder  6.68809 8.2364 49.9115
RightArm  14.9623 -4.24652 15.8151
RightForeArm  21.1775 -2.25365 17.6745
RightHand  0.380282 3.95531 4.45194
LeftUpLeg  11.1593 16.9123 8.23512
LeftLeg  14.3664 3.80225 -0.0575039
LeftFoot  -13.252 -0.0687755 -8.86364
LeftToes  -4.9116e-011 5.71383e-011 -3.31847e-011
93
root  36.1192 38.7515 94.1103 -3.49776 -50.8645 -1.94646
RightUpLeg  -7.52408 -5.82168 0.663655
RightLeg  10.0735 -7.09904 0.884493
RightFoot  2.403 -0.0452056 0.511082
RightToes  2.91037e-010 0 -3.6325e-017
Spine  5.36572 -1.74623 0.799993
Spine1  2.46733 -1.29956 -1.77344
HEad  29.0037 -2.80177 -3.80948
LeftShoulder1  1.39219 -0.209052 -31.4429
LeftArm  17.3609 -0.75152 -31.387
LeftForeArm  -3.23764 -16.7952 -10.3662
LeftHand  0.34291 -1.89889 -5.31403
RightShoulder  7.18207 9.12735 49.8136
RightArm  12.833 -2.65497 15.7592
RightForeArm  21.6738 -3.17013 17.5574
RightHand  0.380688 3.97952 4.44374
LeftUpLeg  9.37756 18.7006 9.46378
LeftLeg  19.1614 1.08275 0.748747
LeftFoot  -13.0567 -0.101512 -11.9545
LeftToes  -4.9116e-011 5.71383e-011 -3.31847e-011
94
root  35.6455 38.6832 94.4318 -2.4338 -49.7841 -2.47134
RightUpLeg  -7.99697 -5.75016 0.839424
RightLeg  11.7547 -8.12528 0.710479
RightFoot  0.571038 -0.0827992 0.830582
RightToes  2.91037e-010 0 -3.6325e-017
Spine  5.23467 -2.04298 1.75215
Spine1  2.46423 -1.63595 -0.496116
HEad  29.189 -3.70949 -3.81581
LeftShoulder1  1.43376 -0.344105 -31.2079
LeftArm  12.762 -0.661798 -32.1355
LeftForeArm  1.95359 -12.9597 -13.0873
LeftHand  0.403029 -2.10423 -6.08146
RightShoulder  7.43412 9.61924 49.6276
RightArm  9.47582 -1.33186 15.8486
RightForeArm  22.9055 -3.42194 17.1658
RightHand  0.371022 3.89754 4.36826
LeftUpLeg  5.67582 17.3298 9.87243
LeftLeg  25.8098 1.05342 0.891135
LeftFoot  -11.7626 0.0152869 -14.8554
LeftToes  -4.9116e-011 5.71383e-011 -3.31847e-011
